<?xml version="1.0" encoding="UTF-8"?>
<!DOCTYPE svg PUBLIC "-//W3C//DTD SVG 1.1//EN" "http://www.w3.org/Graphics/SVG/1.1/DTD/svg11.dtd">
<svg xmlns="http://www.w3.org/2000/svg" version="1.1" width="512px" height="512px" style="shape-rendering:geometricPrecision; text-rendering:geometricPrecision; image-rendering:optimizeQuality; fill-rule:evenodd; clip-rule:evenodd" xmlns:xlink="http://www.w3.org/1999/xlink">
<g><path style="opacity:0.987" fill="#000000" d="M 53.5,15.5 C 134.834,15.3333 216.167,15.5 297.5,16C 317.333,21.1667 329.833,33.6667 335,53.5C 335.5,104.832 335.667,156.166 335.5,207.5C 330.167,207.5 324.833,207.5 319.5,207.5C 319.667,159.499 319.5,111.499 319,63.5C 317.167,44.3333 306.667,33.8333 287.5,32C 212.833,31.3333 138.167,31.3333 63.5,32C 44.3333,33.8333 33.8333,44.3333 32,63.5C 31.3333,191.5 31.3333,319.5 32,447.5C 32.93,463.546 41.0967,473.713 56.5,478C 96.1363,479.458 135.803,479.958 175.5,479.5C 175.5,484.833 175.5,490.167 175.5,495.5C 134.832,495.667 94.1653,495.5 53.5,495C 35.2743,490.441 23.1076,479.275 17,461.5C 15.34,325.543 15.0067,189.543 16,53.5C 21.3488,33.6518 33.8488,20.9852 53.5,15.5 Z M 132.5,176.5 C 141.85,176.365 144.517,180.532 140.5,189C 131.956,192.322 128.123,189.489 129,180.5C 129.69,178.65 130.856,177.316 132.5,176.5 Z"/></g>
<g><path style="opacity:1" fill="#000000" d="M 119.5,47.5 C 124.833,47.5 130.167,47.5 135.5,47.5C 135.5,52.8333 135.5,58.1667 135.5,63.5C 130.167,63.5 124.833,63.5 119.5,63.5C 119.5,58.1667 119.5,52.8333 119.5,47.5 Z"/></g>
<g><path style="opacity:1" fill="#000000" d="M 151.5,47.5 C 167.5,47.5 183.5,47.5 199.5,47.5C 199.5,52.8333 199.5,58.1667 199.5,63.5C 183.5,63.5 167.5,63.5 151.5,63.5C 151.5,58.1667 151.5,52.8333 151.5,47.5 Z"/></g>
<g><path style="opacity:0.931" fill="#000000" d="M 123.5,119.5 C 160.533,116.258 187.033,131.258 203,164.5C 209.503,183.757 208.837,202.757 201,221.5C 185.255,253.847 165.421,283.347 141.5,310C 136.637,312.329 132.137,311.829 128,308.5C 104.933,282.047 85.6002,253.047 70,221.5C 55.78,184.199 64.6133,153.699 96.5,130C 105.048,124.99 114.048,121.49 123.5,119.5 Z M 125.5,136.5 C 151.01,133.674 170.51,143.007 184,164.5C 190.484,176.867 192.151,189.867 189,203.5C 180.771,225.965 169.438,246.631 155,265.5C 149.038,273.959 142.538,281.959 135.5,289.5C 116.126,267.782 99.9598,243.782 87,217.5C 73.7641,186.59 80.9308,161.756 108.5,143C 114.054,140.21 119.721,138.043 125.5,136.5 Z M 132.5,176.5 C 130.856,177.316 129.69,178.65 129,180.5C 128.123,189.489 131.956,192.322 140.5,189C 144.517,180.532 141.85,176.365 132.5,176.5 Z"/></g>
<g><path style="opacity:0.933" fill="#000000" d="M 128.5,159.5 C 143.367,157.012 153.534,162.678 159,176.5C 161.982,191.376 156.482,201.543 142.5,207C 127.624,209.982 117.457,204.482 112,190.5C 109.146,175.533 114.646,165.199 128.5,159.5 Z M 132.5,176.5 C 130.856,177.316 129.69,178.65 129,180.5C 128.123,189.489 131.956,192.322 140.5,189C 144.517,180.532 141.85,176.365 132.5,176.5 Z"/></g>
<g><path style="opacity:0.983" fill="#000000" d="M 299.5,223.5 C 328.835,223.333 358.169,223.5 387.5,224C 389.333,224.5 390.5,225.667 391,227.5C 391.5,236.827 391.666,246.161 391.5,255.5C 407.503,255.333 423.503,255.5 439.5,256C 443.26,257.461 446.093,259.961 448,263.5C 452.332,283.829 458.665,303.495 467,322.5C 479.768,316.67 490.768,319.003 500,329.5C 506.388,342.829 504.221,354.496 493.5,364.5C 494.098,365.795 494.598,367.128 495,368.5C 495.667,407.5 495.667,446.5 495,485.5C 493.167,490 490,493.167 485.5,495C 470.833,495.667 456.167,495.667 441.5,495C 437,493.167 433.833,490 432,485.5C 431.5,478.174 431.334,470.841 431.5,463.5C 372.833,463.5 314.167,463.5 255.5,463.5C 255.666,470.841 255.5,478.174 255,485.5C 253.167,490 250,493.167 245.5,495C 230.833,495.667 216.167,495.667 201.5,495C 197,493.167 193.833,490 192,485.5C 191.333,446.5 191.333,407.5 192,368.5C 192.402,367.128 192.902,365.795 193.5,364.5C 182.779,354.496 180.612,342.829 187,329.5C 196.232,319.003 207.232,316.67 220,322.5C 228.335,303.495 234.668,283.829 239,263.5C 240.907,259.961 243.74,257.461 247.5,256C 263.497,255.5 279.497,255.333 295.5,255.5C 295.334,246.161 295.5,236.827 296,227.5C 296.69,225.65 297.856,224.316 299.5,223.5 Z M 311.5,239.5 C 332.833,239.5 354.167,239.5 375.5,239.5C 375.5,244.833 375.5,250.167 375.5,255.5C 354.167,255.5 332.833,255.5 311.5,255.5C 311.5,250.167 311.5,244.833 311.5,239.5 Z M 254.5,271.5 C 313.834,271.333 373.168,271.5 432.5,272C 434.221,277.05 435.554,282.217 436.5,287.5C 374.5,287.5 312.5,287.5 250.5,287.5C 251.525,282.067 252.858,276.733 254.5,271.5 Z M 245.5,303.5 C 310.837,303.167 376.17,303.5 441.5,304.5C 447.407,320.056 453.407,335.556 459.5,351C 412.501,351.5 365.501,351.667 318.5,351.5C 316.301,341.606 310.634,334.44 301.5,330C 283.718,323.707 269.552,328.207 259,343.5C 257.659,346.022 256.826,348.689 256.5,351.5C 246.828,351.666 237.161,351.5 227.5,351C 233.797,335.277 239.797,319.443 245.5,303.5 Z M 204.5,336.5 C 207.602,336.154 210.435,336.821 213,338.5C 212.863,342.584 211.696,346.417 209.5,350C 202.215,350.962 199.382,347.795 201,340.5C 201.69,338.65 202.856,337.316 204.5,336.5 Z M 476.5,336.5 C 485.85,336.365 488.517,340.532 484.5,349C 482.045,350.631 479.545,350.797 477,349.5C 475.694,346.388 474.528,343.221 473.5,340C 474.071,338.401 475.071,337.234 476.5,336.5 Z M 282.5,344.5 C 289.862,343.019 295.862,345.186 300.5,351C 291.833,351.667 283.167,351.667 274.5,351C 276.776,348.211 279.443,346.044 282.5,344.5 Z M 215.5,367.5 C 300.834,367.333 386.167,367.5 471.5,368C 476,368.5 478.5,371 479,375.5C 479.667,396.833 479.667,418.167 479,439.5C 478.5,444 476,446.5 471.5,447C 386.167,447.667 300.833,447.667 215.5,447C 211,446.5 208.5,444 208,439.5C 207.333,418.167 207.333,396.833 208,375.5C 208.68,370.989 211.18,368.323 215.5,367.5 Z M 244.5,400.5 C 253.85,400.365 256.517,404.532 252.5,413C 243.956,416.322 240.123,413.489 241,404.5C 241.69,402.65 242.856,401.316 244.5,400.5 Z M 436.5,400.5 C 445.85,400.365 448.517,404.532 444.5,413C 435.956,416.322 432.123,413.489 433,404.5C 433.69,402.65 434.856,401.316 436.5,400.5 Z M 207.5,462.5 C 218.085,463.476 228.752,463.809 239.5,463.5C 239.5,468.833 239.5,474.167 239.5,479.5C 228.833,479.5 218.167,479.5 207.5,479.5C 207.5,473.833 207.5,468.167 207.5,462.5 Z M 478.5,462.5 C 479.489,467.975 479.822,473.642 479.5,479.5C 468.833,479.5 458.167,479.5 447.5,479.5C 447.5,474.167 447.5,468.833 447.5,463.5C 458.014,463.828 468.347,463.494 478.5,462.5 Z"/></g>
<g><path style="opacity:0.932" fill="#000000" d="M 240.5,383.5 C 255.367,381.012 265.534,386.678 271,400.5C 273.982,415.376 268.482,425.543 254.5,431C 239.624,433.982 229.457,428.482 224,414.5C 221.146,399.533 226.646,389.199 240.5,383.5 Z M 244.5,400.5 C 242.856,401.316 241.69,402.65 241,404.5C 240.123,413.489 243.956,416.322 252.5,413C 256.517,404.532 253.85,400.365 244.5,400.5 Z"/></g>
<g><path style="opacity:1" fill="#000000" d="M 303.5,383.5 C 330.167,383.5 356.833,383.5 383.5,383.5C 383.5,388.833 383.5,394.167 383.5,399.5C 356.833,399.5 330.167,399.5 303.5,399.5C 303.5,394.167 303.5,388.833 303.5,383.5 Z"/></g>
<g><path style="opacity:0.932" fill="#000000" d="M 432.5,383.5 C 447.367,381.012 457.534,386.678 463,400.5C 465.982,415.376 460.482,425.543 446.5,431C 431.624,433.982 421.457,428.482 416,414.5C 413.146,399.533 418.646,389.199 432.5,383.5 Z M 436.5,400.5 C 434.856,401.316 433.69,402.65 433,404.5C 432.123,413.489 435.956,416.322 444.5,413C 448.517,404.532 445.85,400.365 436.5,400.5 Z"/></g>
<g><path style="opacity:0.959" fill="#000000" d="M 152.5,415.5 C 160.167,415.5 167.833,415.5 175.5,415.5C 175.5,420.833 175.5,426.167 175.5,431.5C 169.075,431.13 162.742,431.63 156.5,433C 152.304,435.981 151.471,439.814 154,444.5C 154.75,445.126 155.584,445.626 156.5,446C 162.742,447.37 169.075,447.87 175.5,447.5C 175.5,452.833 175.5,458.167 175.5,463.5C 166.75,463.91 158.084,463.41 149.5,462C 136.501,454.683 132.335,443.849 137,429.5C 140.492,422.834 145.659,418.168 152.5,415.5 Z"/></g>
<g><path style="opacity:1" fill="#000000" d="M 303.5,415.5 C 330.167,415.5 356.833,415.5 383.5,415.5C 383.5,420.833 383.5,426.167 383.5,431.5C 356.833,431.5 330.167,431.5 303.5,431.5C 303.5,426.167 303.5,420.833 303.5,415.5 Z"/></g>
<g><path style="opacity:0.944" fill="#000000" d="M 305.5,472.5 C 309.662,475.752 313.162,479.752 316,484.5C 316.507,485.996 316.007,487.163 314.5,488C 309.34,491.499 303.674,493.833 297.5,495C 288.84,495.5 280.173,495.666 271.5,495.5C 271.5,490.167 271.5,484.833 271.5,479.5C 279.541,479.664 287.541,479.164 295.5,478C 299.346,476.914 302.68,475.081 305.5,472.5 Z"/></g>
</svg>
