<?xml version="1.0" encoding="UTF-8"?>
<!DOCTYPE svg PUBLIC "-//W3C//DTD SVG 1.1//EN" "http://www.w3.org/Graphics/SVG/1.1/DTD/svg11.dtd">
<svg xmlns="http://www.w3.org/2000/svg" version="1.1" width="512px" height="512px" style="shape-rendering:geometricPrecision; text-rendering:geometricPrecision; image-rendering:optimizeQuality; fill-rule:evenodd; clip-rule:evenodd" xmlns:xlink="http://www.w3.org/1999/xlink">
<g><path style="opacity:0.945" fill="#3d4f7f" d="M 36.5,7.5 C 113.834,7.33334 191.167,7.5 268.5,8C 282.813,10.9808 291.98,19.4808 296,33.5C 296.5,136.166 296.667,238.833 296.5,341.5C 298.467,341.739 300.301,341.406 302,340.5C 302.333,334.5 302.667,328.5 303,322.5C 303.785,320.714 304.951,319.214 306.5,318C 317.598,316.866 328.765,316.366 340,316.5C 350.167,316.667 360.333,316.833 370.5,317C 373.583,317.786 375.749,319.619 377,322.5C 377.499,328.491 377.666,334.491 377.5,340.5C 386.615,340.483 394.948,342.983 402.5,348C 414.21,361.375 425.544,375.042 436.5,389C 452.2,393.175 467.866,397.508 483.5,402C 495.255,407.431 502.089,416.598 504,429.5C 504.899,439.893 504.566,450.227 503,460.5C 500.76,467.741 496.093,472.741 489,475.5C 486.92,485.171 481.753,492.671 473.5,498C 479.833,498.333 486.167,498.667 492.5,499C 493.833,500.333 493.833,501.667 492.5,503C 333.833,503.667 175.167,503.667 16.5,503C 15.1667,501.667 15.1667,500.333 16.5,499C 18.8333,498.667 21.1667,498.333 23.5,498C 16.0884,493.017 11.255,486.184 9,477.5C 8.33333,329.5 8.33333,181.5 9,33.5C 13.2222,19.4405 22.3888,10.7739 36.5,7.5 Z M 299.5,476.5 C 340.505,476.167 381.505,476.5 422.5,477.5C 424.692,486.381 429.692,493.214 437.5,498C 386.833,498.667 336.167,498.667 285.5,498C 293.32,492.853 297.987,485.686 299.5,476.5 Z"/></g>
<g><path style="opacity:1" fill="#a2bacf" d="M 267.5,12.5 C 264.5,12.5 261.5,12.5 258.5,12.5C 255.167,12.5 251.833,12.5 248.5,12.5C 221.167,12.5 193.833,12.5 166.5,12.5C 166.037,15.4824 165.704,18.4824 165.5,21.5C 169.042,21.1872 172.375,21.5206 175.5,22.5C 159.83,22.3334 144.163,22.5001 128.5,23C 127.167,24 127.167,25 128.5,26C 139.828,26.4999 151.162,26.6665 162.5,26.5C 161.833,30.1667 161.167,33.8333 160.5,37.5C 137.831,37.6666 115.164,37.5 92.5,37C 86.481,34.3096 83.1477,29.6429 82.5,23C 67.1667,22.3333 51.8333,22.3333 36.5,23C 29.5724,25.5936 25.0724,30.4269 23,37.5C 22.3333,182.833 22.3333,328.167 23,473.5C 24.5644,477.555 26.7311,481.221 29.5,484.5C 28.5028,484.47 27.8361,484.97 27.5,486C 26.7511,488.497 26.0845,490.997 25.5,493.5C 18.0742,489.003 13.9075,482.337 13,473.5C 12.3333,327.167 12.3333,180.833 13,34.5C 16.7113,22.1211 24.8779,14.6211 37.5,12C 114.334,11.1678 191.001,11.3344 267.5,12.5 Z"/></g>
<g><path style="opacity:1" fill="#bbd9e5" d="M 248.5,12.5 C 247.626,15.7893 246.959,19.1226 246.5,22.5C 242.486,22.3345 238.486,22.5012 234.5,23C 233.927,30.1646 230.261,34.8313 223.5,37C 202.503,37.5 181.503,37.6666 160.5,37.5C 161.167,33.8333 161.833,30.1667 162.5,26.5C 167.167,26.5 171.833,26.5 176.5,26.5C 176.768,24.901 176.434,23.5676 175.5,22.5C 172.375,21.5206 169.042,21.1872 165.5,21.5C 165.704,18.4824 166.037,15.4824 166.5,12.5C 193.833,12.5 221.167,12.5 248.5,12.5 Z"/></g>
<g><path style="opacity:1" fill="#a4bcd1" d="M 248.5,12.5 C 251.833,12.5 255.167,12.5 258.5,12.5C 257.583,15.4173 256.916,18.4173 256.5,21.5C 259.385,21.1936 262.052,21.5269 264.5,22.5C 258.5,22.5 252.5,22.5 246.5,22.5C 246.959,19.1226 247.626,15.7893 248.5,12.5 Z"/></g>
<g><path style="opacity:1" fill="#bad8e4" d="M 258.5,12.5 C 261.5,12.5 264.5,12.5 267.5,12.5C 271.47,12.9841 275.136,14.3175 278.5,16.5C 278.341,20.2909 277.675,23.9576 276.5,27.5C 272.967,24.7342 268.967,23.0675 264.5,22.5C 262.052,21.5269 259.385,21.1936 256.5,21.5C 256.916,18.4173 257.583,15.4173 258.5,12.5 Z"/></g>
<g><path style="opacity:1" fill="#a2bacf" d="M 278.5,16.5 C 285.025,20.874 289.525,26.874 292,34.5C 292.5,137.499 292.667,240.499 292.5,343.5C 289.234,343.629 286.234,344.629 283.5,346.5C 282.667,243.502 282.167,140.502 282,37.5C 280.773,33.7885 278.94,30.4552 276.5,27.5C 277.675,23.9576 278.341,20.2909 278.5,16.5 Z"/></g>
<g><path style="opacity:1" fill="#3f5182" d="M 175.5,22.5 C 176.434,23.5676 176.768,24.901 176.5,26.5C 171.833,26.5 167.167,26.5 162.5,26.5C 151.162,26.6665 139.828,26.4999 128.5,26C 127.167,25 127.167,24 128.5,23C 144.163,22.5001 159.83,22.3334 175.5,22.5 Z"/></g>
<g><path style="opacity:1" fill="#415484" d="M 183.5,22.5 C 185.833,22.5 188.167,22.5 190.5,22.5C 189.925,26.4735 187.758,27.4735 184,25.5C 183.517,24.552 183.351,23.552 183.5,22.5 Z"/></g>
<g><path style="opacity:1" fill="#fefefe" d="M 278.5,96.5 C 254.776,129.591 231.276,162.925 208,196.5C 207.31,197.738 206.81,197.738 206.5,196.5C 208.4,168.127 197.066,146.96 172.5,133C 142.643,120.092 116.809,125.592 95,149.5C 82.7497,165.602 78.7497,183.602 83,203.5C 87.0336,219.6 93.0336,234.934 101,249.5C 109.934,264.918 119.434,279.918 129.5,294.5C 94.9979,273.083 60.6646,251.417 26.5,229.5C 26.3333,165.499 26.5,101.499 27,37.5C 28.6793,33.6182 31.1793,30.4516 34.5,28C 42.2343,26.8643 50.0677,26.3643 58,26.5C 65.1667,26.8333 72.3333,27.1667 79.5,27.5C 81.6332,34.133 85.9666,38.633 92.5,41C 136.167,41.6667 179.833,41.6667 223.5,41C 230.833,39 235.5,34.3333 237.5,27C 247.5,26.3333 257.5,26.3333 267.5,27C 272.667,28.8333 276.167,32.3333 278,37.5C 278.5,57.1638 278.667,76.8305 278.5,96.5 Z"/></g>
<g><path style="opacity:1" fill="#7882a0" d="M 278.5,96.5 C 278.5,104.5 278.5,112.5 278.5,120.5C 277.5,120.833 276.833,121.5 276.5,122.5C 246.19,166.799 215.524,210.799 184.5,254.5C 194.82,236.195 202.153,216.862 206.5,196.5C 206.81,197.738 207.31,197.738 208,196.5C 231.276,162.925 254.776,129.591 278.5,96.5 Z"/></g>
<g><path style="opacity:1" fill="#bca089" d="M 278.5,120.5 C 278.833,197.002 278.499,273.335 277.5,349.5C 277.833,273.665 277.499,197.998 276.5,122.5C 276.833,121.5 277.5,120.833 278.5,120.5 Z"/></g>
<g><path style="opacity:1" fill="#feca8e" d="M 276.5,122.5 C 277.499,197.998 277.833,273.665 277.5,349.5C 267.888,356.353 260.888,365.353 256.5,376.5C 221.054,354.271 185.72,331.771 150.5,309C 149.748,308.329 149.414,307.496 149.5,306.5C 161.95,289.712 173.617,272.379 184.5,254.5C 215.524,210.799 246.19,166.799 276.5,122.5 Z"/></g>
<g><path style="opacity:1" fill="#464f7e" d="M 206.5,196.5 C 202.153,216.862 194.82,236.195 184.5,254.5C 173.617,272.379 161.95,289.712 149.5,306.5C 148.067,307.833 146.733,309.333 145.5,311C 144.5,311.667 143.5,311.667 142.5,311C 138.268,305.34 133.934,299.84 129.5,294.5C 119.434,279.918 109.934,264.918 101,249.5C 93.0336,234.934 87.0336,219.6 83,203.5C 78.7497,183.602 82.7497,165.602 95,149.5C 116.809,125.592 142.643,120.092 172.5,133C 197.066,146.96 208.4,168.127 206.5,196.5 Z"/></g>
<g><path style="opacity:1" fill="#fd4b3a" d="M 148.5,300.5 C 128.32,276.18 112.153,249.18 100,219.5C 85.3923,180.437 96.2257,151.104 132.5,131.5C 168.241,127.728 191.407,143.062 202,177.5C 203.466,196.835 199.8,215.168 191,232.5C 179.061,256.745 164.894,279.411 148.5,300.5 Z"/></g>
<g><path style="opacity:1" fill="#f86767" d="M 132.5,131.5 C 96.2257,151.104 85.3923,180.437 100,219.5C 112.153,249.18 128.32,276.18 148.5,300.5C 147.252,302.649 145.752,304.649 144,306.5C 125.001,283.193 109.001,257.859 96,230.5C 87.724,213.736 84.3907,196.069 86,177.5C 92.098,152.568 107.598,137.235 132.5,131.5 Z"/></g>
<g><path style="opacity:1" fill="#48507e" d="M 138.5,146.5 C 160.295,145.806 174.462,155.806 181,176.5C 182.51,208.323 167.343,223.49 135.5,222C 113.168,214.522 103.668,199.022 107,175.5C 112.301,160.027 122.801,150.36 138.5,146.5 Z"/></g>
<g><path style="opacity:1" fill="#d0effb" d="M 163.5,157.5 C 144.409,152.25 129.575,157.916 119,174.5C 117.36,178.392 116.027,182.392 115,186.5C 114.377,192.604 114.877,198.604 116.5,204.5C 110.837,195.72 109.004,186.053 111,175.5C 117.44,158.06 129.94,149.894 148.5,151C 154.162,151.932 159.162,154.099 163.5,157.5 Z"/></g>
<g><path style="opacity:1" fill="#fdfefe" d="M 163.5,157.5 C 170.025,161.874 174.525,167.874 177,175.5C 180.166,201.153 168.999,215.487 143.5,218.5C 132.142,218.322 123.142,213.655 116.5,204.5C 114.877,198.604 114.377,192.604 115,186.5C 116.027,182.392 117.36,178.392 119,174.5C 129.575,157.916 144.409,152.25 163.5,157.5 Z"/></g>
<g><path style="opacity:1" fill="#7783a0" d="M 26.5,229.5 C 60.6646,251.417 94.9979,273.083 129.5,294.5C 133.934,299.84 138.268,305.34 142.5,311C 143.5,311.667 144.5,311.667 145.5,311C 146.733,309.333 148.067,307.833 149.5,306.5C 149.414,307.496 149.748,308.329 150.5,309C 185.72,331.771 221.054,354.271 256.5,376.5C 254.68,380.14 252.847,383.807 251,387.5C 249.887,388.305 248.721,388.972 247.5,389.5C 244.124,386.806 240.457,384.473 236.5,382.5C 230.239,377.693 223.573,373.359 216.5,369.5C 192.919,407.659 169.585,445.992 146.5,484.5C 140.5,484.5 134.5,484.5 128.5,484.5C 153.274,443.219 178.274,402.052 203.5,361C 160.301,332.969 116.968,305.136 73.5,277.5C 57.8235,300.196 42.1568,322.862 26.5,345.5C 26.5,337.167 26.5,328.833 26.5,320.5C 38.1824,303.656 49.5157,286.489 60.5,269C 49.3097,261.241 37.9764,253.741 26.5,246.5C 26.5,240.833 26.5,235.167 26.5,229.5 Z"/></g>
<g><path style="opacity:1" fill="#fbc98f" d="M 26.5,246.5 C 37.9764,253.741 49.3097,261.241 60.5,269C 49.5157,286.489 38.1824,303.656 26.5,320.5C 26.5,295.833 26.5,271.167 26.5,246.5 Z"/></g>
<g><path style="opacity:1" fill="#01fec0" d="M 128.5,484.5 C 97.8315,484.667 67.1649,484.5 36.5,484C 31.5768,481.673 28.4101,477.84 27,472.5C 26.5,430.168 26.3333,387.835 26.5,345.5C 42.1568,322.862 57.8235,300.196 73.5,277.5C 116.968,305.136 160.301,332.969 203.5,361C 178.274,402.052 153.274,443.219 128.5,484.5 Z"/></g>
<g><path style="opacity:1" fill="#fd4f3e" d="M 309.5,321.5 C 329.836,321.333 350.169,321.5 370.5,322C 371.333,322.833 372.167,323.667 373,324.5C 373.499,330.157 373.666,335.824 373.5,341.5C 351.167,341.5 328.833,341.5 306.5,341.5C 306.334,335.824 306.501,330.157 307,324.5C 307.698,323.309 308.531,322.309 309.5,321.5 Z"/></g>
<g><path style="opacity:1" fill="#ffe5e2" d="M 321.5,325.5 C 329.176,324.209 331.51,324.209 328.5,325.5C 328.826,329.884 328.492,334.217 327.5,338.5C 326.509,334.555 326.176,330.555 326.5,326.5C 324.708,326.634 323.042,326.301 321.5,325.5 Z"/></g>
<g><path style="opacity:1" fill="#ffe1de" d="M 335.5,327.5 C 342.271,328.307 344.271,331.973 341.5,338.5C 339.007,338.4 336.507,338.067 334,337.5C 333.044,333.075 334.877,331.408 339.5,332.5C 339.5,331.5 339.5,330.5 339.5,329.5C 337.801,329.66 336.134,329.494 334.5,329C 335.056,328.617 335.389,328.117 335.5,327.5 Z"/></g>
<g><path style="opacity:1" fill="#ffc2bb" d="M 356.5,327.5 C 357.808,331.019 357.808,334.685 356.5,338.5C 355.242,334.79 355.242,331.123 356.5,327.5 Z"/></g>
<g><path style="opacity:1" fill="#ffe6e3" d="M 344.5,329.5 C 344.56,328.957 344.893,328.624 345.5,328.5C 346.814,329.313 347.981,330.313 349,331.5C 350.113,329.671 351.613,328.837 353.5,329C 349.587,331.785 349.587,334.618 353.5,337.5C 351.282,338.188 349.782,337.188 349,334.5C 348.059,336.061 346.892,337.395 345.5,338.5C 345.167,338.167 344.833,337.833 344.5,337.5C 345.5,336.167 346.5,334.833 347.5,333.5C 346.479,332.099 345.479,330.765 344.5,329.5 Z"/></g>
<g><path style="opacity:1" fill="#ff5e4d" d="M 335.5,333.5 C 337.288,333.215 338.955,333.548 340.5,334.5C 339.332,336.217 337.665,336.884 335.5,336.5C 335.5,335.5 335.5,334.5 335.5,333.5 Z"/></g>
<g><path style="opacity:1" fill="#fbe63f" d="M 424.5,458.5 C 382.5,458.5 340.5,458.5 298.5,458.5C 295.702,452.588 291.702,447.588 286.5,443.5C 287.568,442.566 288.901,442.232 290.5,442.5C 290.5,441.167 290.5,439.833 290.5,438.5C 290.833,438.5 291.167,438.5 291.5,438.5C 292.434,437.432 292.768,436.099 292.5,434.5C 290.833,434.5 289.167,434.5 287.5,434.5C 287.5,435.833 287.5,437.167 287.5,438.5C 285.952,438.821 285.285,439.821 285.5,441.5C 285.5,441.833 285.5,442.167 285.5,442.5C 263.73,431.868 247.397,437.202 236.5,458.5C 228.585,459.293 222.085,456.626 217,450.5C 215.571,443.281 215.071,435.947 215.5,428.5C 220.018,408.482 232.352,396.315 252.5,392C 257.191,382.786 262.024,373.619 267,364.5C 274.39,355.115 283.89,348.948 295.5,346C 326.167,345.333 356.833,345.333 387.5,346C 394.512,347.587 400.345,351.087 405,356.5C 414.5,368.667 424,380.833 433.5,393C 446.361,396.799 459.361,400.132 472.5,403C 481.6,404.712 488.933,409.212 494.5,416.5C 482.197,419.604 479.53,426.437 486.5,437C 490.546,439.174 494.879,440.007 499.5,439.5C 499.891,446.921 499.391,454.254 498,461.5C 495.667,465.167 492.667,468.167 489,470.5C 485.569,447.065 472.069,436.232 448.5,438C 437.064,440.875 429.064,447.708 424.5,458.5 Z"/></g>
<g><path style="opacity:1" fill="#40507f" d="M 296.5,354.5 C 305.506,354.334 314.506,354.5 323.5,355C 324.667,356.167 325.833,357.333 327,358.5C 327.667,373.167 327.667,387.833 327,402.5C 326.535,403.931 325.701,405.097 324.5,406C 307.591,407.638 290.591,407.971 273.5,407C 265.94,402.194 263.44,395.36 266,386.5C 270.579,370.423 280.746,359.756 296.5,354.5 Z"/></g>
<g><path style="opacity:1" fill="#3f507f" d="M 343.5,354.5 C 357.504,354.333 371.504,354.5 385.5,355C 391.008,356.671 395.842,359.505 400,363.5C 405.333,370.833 410.667,378.167 416,385.5C 419.906,392.685 419.073,399.185 413.5,405C 411.913,405.862 410.246,406.529 408.5,407C 386.411,407.978 364.411,407.644 342.5,406C 341.299,405.097 340.465,403.931 340,402.5C 339.333,387.833 339.333,373.167 340,358.5C 341.376,357.295 342.542,355.962 343.5,354.5 Z"/></g>
<g><path style="opacity:1" fill="#d3f2fd" d="M 321.5,358.5 C 320.624,358.369 319.957,358.702 319.5,359.5C 310.156,374.195 300.823,388.862 291.5,403.5C 287.5,403.5 283.5,403.5 279.5,403.5C 288.437,388.47 297.77,373.637 307.5,359C 306.056,358.219 304.723,358.386 303.5,359.5C 294.156,374.195 284.823,388.862 275.5,403.5C 274.29,403.068 273.29,402.401 272.5,401.5C 274.785,400.043 276.618,398.043 278,395.5C 285.753,383.264 293.253,370.93 300.5,358.5C 307.5,357.167 314.5,357.167 321.5,358.5 Z"/></g>
<g><path style="opacity:1" fill="#fafdfe" d="M 279.5,403.5 C 278.167,403.5 276.833,403.5 275.5,403.5C 284.823,388.862 294.156,374.195 303.5,359.5C 304.723,358.386 306.056,358.219 307.5,359C 297.77,373.637 288.437,388.47 279.5,403.5 Z"/></g>
<g><path style="opacity:1" fill="#f9fafb" d="M 321.5,358.5 C 322.458,358.953 323.292,359.619 324,360.5C 324.964,374.594 324.631,388.594 323,402.5C 312.582,403.487 302.082,403.82 291.5,403.5C 300.823,388.862 310.156,374.195 319.5,359.5C 319.957,358.702 320.624,358.369 321.5,358.5 Z"/></g>
<g><path style="opacity:1" fill="#fbfbfc" d="M 345.5,358.5 C 349.106,358.211 352.606,358.544 356,359.5C 365.391,374.051 374.558,388.718 383.5,403.5C 370.254,403.823 357.087,403.489 344,402.5C 342.369,388.594 342.036,374.594 343,360.5C 343.708,359.619 344.542,358.953 345.5,358.5 Z"/></g>
<g><path style="opacity:1" fill="#d1f0fb" d="M 345.5,358.5 C 357.833,357.167 370.167,357.167 382.5,358.5C 379.833,358.5 377.167,358.5 374.5,358.5C 373.5,358.5 372.5,358.5 371.5,358.5C 370.448,358.351 369.448,358.517 368.5,359C 378.058,373.718 387.391,388.551 396.5,403.5C 392.167,403.5 387.833,403.5 383.5,403.5C 374.558,388.718 365.391,374.051 356,359.5C 352.606,358.544 349.106,358.211 345.5,358.5 Z"/></g>
<g><path style="opacity:1" fill="#fbfeff" d="M 371.5,358.5 C 380.833,373.5 390.167,388.5 399.5,403.5C 398.5,403.5 397.5,403.5 396.5,403.5C 387.391,388.551 378.058,373.718 368.5,359C 369.448,358.517 370.448,358.351 371.5,358.5 Z"/></g>
<g><path style="opacity:1" fill="#d8f5ff" d="M 371.5,358.5 C 372.5,358.5 373.5,358.5 374.5,358.5C 384.095,373.36 393.428,388.36 402.5,403.5C 401.5,403.5 400.5,403.5 399.5,403.5C 390.167,388.5 380.833,373.5 371.5,358.5 Z"/></g>
<g><path style="opacity:1" fill="#fcfcfd" d="M 374.5,358.5 C 377.167,358.5 379.833,358.5 382.5,358.5C 389.447,359.392 394.947,362.726 399,368.5C 404.58,375.992 409.913,383.659 415,391.5C 415.614,400.385 411.447,404.385 402.5,403.5C 393.428,388.36 384.095,373.36 374.5,358.5 Z"/></g>
<g><path style="opacity:1" fill="#fbfbfc" d="M 300.5,358.5 C 293.253,370.93 285.753,383.264 278,395.5C 276.618,398.043 274.785,400.043 272.5,401.5C 271.21,400.942 270.377,399.942 270,398.5C 268.505,379.992 276.339,367.158 293.5,360C 295.74,359.023 298.073,358.523 300.5,358.5 Z"/></g>
<g><path style="opacity:1" fill="#05fec1" d="M 236.5,382.5 C 217.886,390.964 206.386,405.298 202,425.5C 201.333,437.167 201.333,448.833 202,460.5C 205.191,472.185 212.357,480.185 223.5,484.5C 197.833,484.5 172.167,484.5 146.5,484.5C 169.585,445.992 192.919,407.659 216.5,369.5C 223.573,373.359 230.239,377.693 236.5,382.5 Z"/></g>
<g><path style="opacity:1" fill="#03f1b7" d="M 236.5,382.5 C 240.457,384.473 244.124,386.806 247.5,389.5C 227.079,395.757 214.913,409.424 211,430.5C 210.333,439.5 210.333,448.5 211,457.5C 214.667,469.671 222.834,476.004 235.5,476.5C 235.756,478.937 236.423,481.271 237.5,483.5C 232.88,484.493 228.214,484.827 223.5,484.5C 212.357,480.185 205.191,472.185 202,460.5C 201.333,448.833 201.333,437.167 202,425.5C 206.386,405.298 217.886,390.964 236.5,382.5 Z"/></g>
<g><path style="opacity:1" fill="#3d4d7b" d="M 285.5,417.5 C 292.167,417.5 298.833,417.5 305.5,417.5C 305.5,418.5 305.5,419.5 305.5,420.5C 298.833,420.5 292.167,420.5 285.5,420.5C 285.5,419.5 285.5,418.5 285.5,417.5 Z"/></g>
<g><path style="opacity:1" fill="#3e4e7b" d="M 338.5,417.5 C 344.833,417.5 351.167,417.5 357.5,417.5C 357.5,418.5 357.5,419.5 357.5,420.5C 351.167,420.5 344.833,420.5 338.5,420.5C 338.5,419.5 338.5,418.5 338.5,417.5 Z"/></g>
<g><path style="opacity:1" fill="#f6f698" d="M 491.5,420.5 C 493.604,420.201 495.604,420.534 497.5,421.5C 499.217,425.997 499.884,430.663 499.5,435.5C 490.344,437.168 486.177,433.501 487,424.5C 488.397,422.93 489.897,421.596 491.5,420.5 Z"/></g>
<g><path style="opacity:1" fill="#757b69" d="M 291.5,438.5 C 291.5,437.5 291.5,436.5 291.5,435.5C 290.5,435.5 289.5,435.5 288.5,435.5C 288.737,436.791 288.404,437.791 287.5,438.5C 287.5,437.167 287.5,435.833 287.5,434.5C 289.167,434.5 290.833,434.5 292.5,434.5C 292.768,436.099 292.434,437.432 291.5,438.5 Z"/></g>
<g><path style="opacity:1" fill="#757b6a" d="M 300.5,438.5 C 300.5,437.5 300.5,436.5 300.5,435.5C 299.5,435.5 298.5,435.5 297.5,435.5C 297.737,436.791 297.404,437.791 296.5,438.5C 296.5,437.167 296.5,435.833 296.5,434.5C 298.167,434.5 299.833,434.5 301.5,434.5C 301.768,436.099 301.434,437.432 300.5,438.5 Z"/></g>
<g><path style="opacity:1" fill="#384b7d" d="M 291.5,438.5 C 291.167,438.5 290.833,438.5 290.5,438.5C 289.596,439.209 289.263,440.209 289.5,441.5C 288.167,441.5 286.833,441.5 285.5,441.5C 285.285,439.821 285.952,438.821 287.5,438.5C 288.404,437.791 288.737,436.791 288.5,435.5C 289.5,435.5 290.5,435.5 291.5,435.5C 291.5,436.5 291.5,437.5 291.5,438.5 Z"/></g>
<g><path style="opacity:1" fill="#384b7d" d="M 300.5,438.5 C 300.167,438.5 299.833,438.5 299.5,438.5C 298.596,439.209 298.263,440.209 298.5,441.5C 297.167,441.5 295.833,441.5 294.5,441.5C 294.285,439.821 294.952,438.821 296.5,438.5C 297.404,437.791 297.737,436.791 297.5,435.5C 298.5,435.5 299.5,435.5 300.5,435.5C 300.5,436.5 300.5,437.5 300.5,438.5 Z"/></g>
<g><path style="opacity:1" fill="#3e4f7b" d="M 309.5,438.5 C 307.824,439.183 307.157,440.517 307.5,442.5C 306.167,442.5 304.833,442.5 303.5,442.5C 303.157,440.517 303.824,439.183 305.5,438.5C 306.404,437.791 306.737,436.791 306.5,435.5C 307.5,435.5 308.5,435.5 309.5,435.5C 309.5,436.5 309.5,437.5 309.5,438.5 Z"/></g>
<g><path style="opacity:1" fill="#7a7f68" d="M 309.5,438.5 C 309.5,437.5 309.5,436.5 309.5,435.5C 308.5,435.5 307.5,435.5 306.5,435.5C 306.737,436.791 306.404,437.791 305.5,438.5C 305.5,437.167 305.5,435.833 305.5,434.5C 307.167,434.5 308.833,434.5 310.5,434.5C 310.768,436.099 310.434,437.432 309.5,438.5 Z"/></g>
<g><path style="opacity:1" fill="#3e4f7b" d="M 318.5,438.5 C 316.824,439.183 316.157,440.517 316.5,442.5C 315.167,442.5 313.833,442.5 312.5,442.5C 312.157,440.517 312.824,439.183 314.5,438.5C 315.404,437.791 315.737,436.791 315.5,435.5C 316.5,435.5 317.5,435.5 318.5,435.5C 318.5,436.5 318.5,437.5 318.5,438.5 Z"/></g>
<g><path style="opacity:1" fill="#7c8068" d="M 318.5,438.5 C 318.5,437.5 318.5,436.5 318.5,435.5C 317.5,435.5 316.5,435.5 315.5,435.5C 315.737,436.791 315.404,437.791 314.5,438.5C 314.5,437.167 314.5,435.833 314.5,434.5C 316.167,434.5 317.833,434.5 319.5,434.5C 319.768,436.099 319.434,437.432 318.5,438.5 Z"/></g>
<g><path style="opacity:1" fill="#41507a" d="M 323.5,435.5 C 324.833,435.5 326.167,435.5 327.5,435.5C 327.5,436.5 327.5,437.5 327.5,438.5C 325.824,439.183 325.157,440.517 325.5,442.5C 324.167,442.5 322.833,442.5 321.5,442.5C 321.884,440.071 322.551,437.737 323.5,435.5 Z"/></g>
<g><path style="opacity:1" fill="#838665" d="M 323.5,435.5 C 324.919,434.549 326.585,434.216 328.5,434.5C 328.768,436.099 328.434,437.432 327.5,438.5C 327.5,437.5 327.5,436.5 327.5,435.5C 326.167,435.5 324.833,435.5 323.5,435.5 Z"/></g>
<g><path style="opacity:1" fill="#40507a" d="M 332.5,435.5 C 333.833,435.5 335.167,435.5 336.5,435.5C 336.5,436.5 336.5,437.5 336.5,438.5C 334.824,439.183 334.157,440.517 334.5,442.5C 333.167,442.5 331.833,442.5 330.5,442.5C 330.884,440.071 331.551,437.737 332.5,435.5 Z"/></g>
<g><path style="opacity:1" fill="#868964" d="M 332.5,435.5 C 333.919,434.549 335.585,434.216 337.5,434.5C 337.768,436.099 337.434,437.432 336.5,438.5C 336.5,437.5 336.5,436.5 336.5,435.5C 335.167,435.5 333.833,435.5 332.5,435.5 Z"/></g>
<g><path style="opacity:1" fill="#3f4f7b" d="M 341.5,435.5 C 342.833,435.5 344.167,435.5 345.5,435.5C 345.5,436.5 345.5,437.5 345.5,438.5C 343.824,439.183 343.157,440.517 343.5,442.5C 342.167,442.5 340.833,442.5 339.5,442.5C 339.884,440.071 340.551,437.737 341.5,435.5 Z"/></g>
<g><path style="opacity:1" fill="#898b63" d="M 341.5,435.5 C 342.919,434.549 344.585,434.216 346.5,434.5C 346.768,436.099 346.434,437.432 345.5,438.5C 345.5,437.5 345.5,436.5 345.5,435.5C 344.167,435.5 342.833,435.5 341.5,435.5 Z"/></g>
<g><path style="opacity:1" fill="#3f4f7b" d="M 350.5,435.5 C 351.833,435.5 353.167,435.5 354.5,435.5C 354.5,436.5 354.5,437.5 354.5,438.5C 352.824,439.183 352.157,440.517 352.5,442.5C 351.167,442.5 349.833,442.5 348.5,442.5C 348.884,440.071 349.551,437.737 350.5,435.5 Z"/></g>
<g><path style="opacity:1" fill="#8b8c63" d="M 350.5,435.5 C 351.919,434.549 353.585,434.216 355.5,434.5C 355.768,436.099 355.434,437.432 354.5,438.5C 354.5,437.5 354.5,436.5 354.5,435.5C 353.167,435.5 351.833,435.5 350.5,435.5 Z"/></g>
<g><path style="opacity:1" fill="#3e4f7b" d="M 359.5,435.5 C 360.833,435.5 362.167,435.5 363.5,435.5C 363.5,436.5 363.5,437.5 363.5,438.5C 361.824,439.183 361.157,440.517 361.5,442.5C 360.167,442.5 358.833,442.5 357.5,442.5C 357.884,440.071 358.551,437.737 359.5,435.5 Z"/></g>
<g><path style="opacity:1" fill="#8e8f62" d="M 359.5,435.5 C 360.919,434.549 362.585,434.216 364.5,434.5C 364.768,436.099 364.434,437.432 363.5,438.5C 363.5,437.5 363.5,436.5 363.5,435.5C 362.167,435.5 360.833,435.5 359.5,435.5 Z"/></g>
<g><path style="opacity:1" fill="#3e4e7b" d="M 368.5,435.5 C 369.833,435.5 371.167,435.5 372.5,435.5C 372.5,436.5 372.5,437.5 372.5,438.5C 370.824,439.183 370.157,440.517 370.5,442.5C 369.167,442.5 367.833,442.5 366.5,442.5C 366.884,440.071 367.551,437.737 368.5,435.5 Z"/></g>
<g><path style="opacity:1" fill="#919161" d="M 368.5,435.5 C 369.919,434.549 371.585,434.216 373.5,434.5C 373.768,436.099 373.434,437.432 372.5,438.5C 372.5,437.5 372.5,436.5 372.5,435.5C 371.167,435.5 369.833,435.5 368.5,435.5 Z"/></g>
<g><path style="opacity:1" fill="#3e4e7b" d="M 377.5,435.5 C 378.833,435.5 380.167,435.5 381.5,435.5C 381.5,436.5 381.5,437.5 381.5,438.5C 379.824,439.183 379.157,440.517 379.5,442.5C 378.167,442.5 376.833,442.5 375.5,442.5C 375.884,440.071 376.551,437.737 377.5,435.5 Z"/></g>
<g><path style="opacity:1" fill="#959460" d="M 377.5,435.5 C 378.919,434.549 380.585,434.216 382.5,434.5C 382.768,436.099 382.434,437.432 381.5,438.5C 381.5,437.5 381.5,436.5 381.5,435.5C 380.167,435.5 378.833,435.5 377.5,435.5 Z"/></g>
<g><path style="opacity:1" fill="#3e4e7b" d="M 386.5,435.5 C 387.833,435.5 389.167,435.5 390.5,435.5C 390.5,436.5 390.5,437.5 390.5,438.5C 388.824,439.183 388.157,440.517 388.5,442.5C 387.167,442.5 385.833,442.5 384.5,442.5C 384.884,440.071 385.551,437.737 386.5,435.5 Z"/></g>
<g><path style="opacity:1" fill="#97965f" d="M 386.5,435.5 C 387.919,434.549 389.585,434.216 391.5,434.5C 391.768,436.099 391.434,437.432 390.5,438.5C 390.5,437.5 390.5,436.5 390.5,435.5C 389.167,435.5 387.833,435.5 386.5,435.5 Z"/></g>
<g><path style="opacity:1" fill="#3e4e7b" d="M 395.5,435.5 C 396.833,435.5 398.167,435.5 399.5,435.5C 399.5,436.5 399.5,437.5 399.5,438.5C 397.824,439.183 397.157,440.517 397.5,442.5C 396.167,442.5 394.833,442.5 393.5,442.5C 393.884,440.071 394.551,437.737 395.5,435.5 Z"/></g>
<g><path style="opacity:1" fill="#9a985e" d="M 395.5,435.5 C 396.919,434.549 398.585,434.216 400.5,434.5C 400.768,436.099 400.434,437.432 399.5,438.5C 399.5,437.5 399.5,436.5 399.5,435.5C 398.167,435.5 396.833,435.5 395.5,435.5 Z"/></g>
<g><path style="opacity:1" fill="#3e4e7b" d="M 404.5,435.5 C 405.833,435.5 407.167,435.5 408.5,435.5C 408.5,436.5 408.5,437.5 408.5,438.5C 406.824,439.183 406.157,440.517 406.5,442.5C 405.167,442.5 403.833,442.5 402.5,442.5C 402.884,440.071 403.551,437.737 404.5,435.5 Z"/></g>
<g><path style="opacity:1" fill="#9e9a5e" d="M 404.5,435.5 C 405.919,434.549 407.585,434.216 409.5,434.5C 409.768,436.099 409.434,437.432 408.5,438.5C 408.5,437.5 408.5,436.5 408.5,435.5C 407.167,435.5 405.833,435.5 404.5,435.5 Z"/></g>
<g><path style="opacity:1" fill="#455379" d="M 413.5,434.5 C 414.833,434.5 416.167,434.5 417.5,434.5C 416.833,437.167 416.167,439.833 415.5,442.5C 414.167,442.5 412.833,442.5 411.5,442.5C 412.167,439.833 412.833,437.167 413.5,434.5 Z"/></g>
<g><path style="opacity:1" fill="#455379" d="M 422.5,434.5 C 423.833,434.5 425.167,434.5 426.5,434.5C 425.833,437.167 425.167,439.833 424.5,442.5C 423.167,442.5 421.833,442.5 420.5,442.5C 421.167,439.833 421.833,437.167 422.5,434.5 Z"/></g>
<g><path style="opacity:1" fill="#455379" d="M 431.5,434.5 C 432.833,434.5 434.167,434.5 435.5,434.5C 434.833,437.167 434.167,439.833 433.5,442.5C 432.167,442.5 430.833,442.5 429.5,442.5C 430.167,439.833 430.833,437.167 431.5,434.5 Z"/></g>
<g><path style="opacity:1" fill="#737e9d" d="M 263.5,440.5 C 285.012,441.178 295.846,452.178 296,473.5C 291.094,493.048 278.594,501.215 258.5,498C 243.045,491.593 236.545,480.093 239,463.5C 242.891,451.104 251.057,443.438 263.5,440.5 Z"/></g>
<g><path style="opacity:1" fill="#7c7f68" d="M 290.5,438.5 C 290.5,439.833 290.5,441.167 290.5,442.5C 288.901,442.232 287.568,442.566 286.5,443.5C 285.833,443.5 285.5,443.167 285.5,442.5C 285.5,442.167 285.5,441.833 285.5,441.5C 286.833,441.5 288.167,441.5 289.5,441.5C 289.263,440.209 289.596,439.209 290.5,438.5 Z"/></g>
<g><path style="opacity:1" fill="#787c69" d="M 299.5,438.5 C 299.5,439.833 299.5,441.167 299.5,442.5C 297.585,442.784 295.919,442.451 294.5,441.5C 295.833,441.5 297.167,441.5 298.5,441.5C 298.263,440.209 298.596,439.209 299.5,438.5 Z"/></g>
<g><path style="opacity:1" fill="#737e9d" d="M 450.5,440.5 C 474.003,441.166 485.169,453.166 484,476.5C 478.069,494.055 465.902,501.221 447.5,498C 431.521,491.552 424.688,479.719 427,462.5C 431.186,451.143 439.02,443.81 450.5,440.5 Z"/></g>
<g><path style="opacity:1" fill="#ecd83e" d="M 215.5,428.5 C 215.071,435.947 215.571,443.281 217,450.5C 222.085,456.626 228.585,459.293 236.5,458.5C 234.785,462.966 234.118,467.633 234.5,472.5C 226.1,471.932 219.934,467.932 216,460.5C 214.904,454.746 214.404,448.913 214.5,443C 214.501,437.988 214.834,433.155 215.5,428.5 Z"/></g>
<g><path style="opacity:1" fill="#3e5081" d="M 261.5,457.5 C 273.629,455.479 279.795,460.479 280,472.5C 277.009,481.58 270.843,484.747 261.5,482C 252.192,473.754 252.192,465.587 261.5,457.5 Z"/></g>
<g><path style="opacity:1" fill="#3c4f7f" d="M 450.5,457.5 C 462.645,456.151 468.479,461.484 468,473.5C 464.757,481.538 458.923,484.371 450.5,482C 443.765,478.475 441.265,472.975 443,465.5C 445.028,462.308 447.528,459.641 450.5,457.5 Z"/></g>
<g><path style="opacity:1" fill="#f3de3b" d="M 298.5,458.5 C 340.5,458.5 382.5,458.5 424.5,458.5C 423.093,462.683 422.426,467.016 422.5,471.5C 381.833,471.5 341.167,471.5 300.5,471.5C 300.802,468.941 300.468,466.607 299.5,464.5C 298.85,462.565 298.517,460.565 298.5,458.5 Z"/></g>
<g><path style="opacity:1" fill="#f7f7f9" d="M 264.5,460.5 C 273.037,460.201 276.871,464.201 276,472.5C 271.264,480.846 265.598,481.513 259,474.5C 257.025,468.177 258.858,463.51 264.5,460.5 Z"/></g>
<g><path style="opacity:1" fill="#f7f8fa" d="M 452.5,460.5 C 462.929,460.751 466.429,465.751 463,475.5C 456.783,481.32 451.45,480.654 447,473.5C 445.571,467.7 447.404,463.367 452.5,460.5 Z"/></g>
<g><path style="opacity:1" fill="#d5c646" d="M 299.5,464.5 C 300.468,466.607 300.802,468.941 300.5,471.5C 341.167,471.5 381.833,471.5 422.5,471.5C 381.67,472.499 340.67,472.832 299.5,472.5C 299.5,469.833 299.5,467.167 299.5,464.5 Z"/></g>
<g><path style="opacity:1" fill="#bbd9e5" d="M 29.5,484.5 C 32.8637,486.683 36.5304,488.016 40.5,488.5C 62.9963,489.332 85.663,489.832 108.5,490C 107.268,492.766 106.268,495.599 105.5,498.5C 82.8333,498.5 60.1667,498.5 37.5,498.5C 32.7679,498.373 28.7679,496.707 25.5,493.5C 26.0845,490.997 26.7511,488.497 27.5,486C 27.8361,484.97 28.5028,484.47 29.5,484.5 Z"/></g>
<g><path style="opacity:1" fill="#a2bacf" d="M 40.5,488.5 C 107.167,488.333 173.834,488.5 240.5,489C 242.713,492.714 245.713,495.548 249.5,497.5C 212.337,498.498 175.004,498.832 137.5,498.5C 138.578,495.598 139.244,492.598 139.5,489.5C 132.167,489.5 124.833,489.5 117.5,489.5C 116.833,492.5 116.167,495.5 115.5,498.5C 112.167,498.5 108.833,498.5 105.5,498.5C 106.268,495.599 107.268,492.766 108.5,490C 85.663,489.832 62.9963,489.332 40.5,488.5 Z"/></g>
<g><path style="opacity:1" fill="#bbd9e5" d="M 137.5,498.5 C 130.167,498.5 122.833,498.5 115.5,498.5C 116.167,495.5 116.833,492.5 117.5,489.5C 124.833,489.5 132.167,489.5 139.5,489.5C 139.244,492.598 138.578,495.598 137.5,498.5 Z"/></g>
<g><path style="opacity:1" fill="#748aab" d="M 249.5,497.5 C 250.289,497.783 250.956,498.283 251.5,499C 179.999,499.832 108.665,499.665 37.5,498.5C 60.1667,498.5 82.8333,498.5 105.5,498.5C 108.833,498.5 112.167,498.5 115.5,498.5C 122.833,498.5 130.167,498.5 137.5,498.5C 175.004,498.832 212.337,498.498 249.5,497.5 Z"/></g>
<g><path style="opacity:0.852" fill="#374b7c" d="M 499.5,498.5 C 503.138,497.737 504.638,499.07 504,502.5C 499.415,504.413 497.915,503.079 499.5,498.5 Z"/></g>
<g><path style="opacity:0.808" fill="#374a7d" d="M 7.5,498.5 C 11.1378,497.737 12.6378,499.07 12,502.5C 7.41546,504.413 5.91546,503.079 7.5,498.5 Z"/></g>
</svg>
